<mxfile host="app.diagrams.net" agent="Mozilla/5.0 (Macintosh; Intel Mac OS X 10_15_7) AppleWebKit/537.36 (KHTML, like Gecko) Chrome/134.0.0.0 Safari/537.36" version="26.1.1">
  <diagram name="第 1 页" id="l_DR7KnRHLTlUDp1lk41">
    <mxGraphModel dx="3949" dy="2063" grid="1" gridSize="10" guides="1" tooltips="1" connect="1" arrows="1" fold="1" page="1" pageScale="1" pageWidth="827" pageHeight="1169" math="0" shadow="0">
      <root>
        <mxCell id="0" />
        <mxCell id="1" parent="0" />
        <mxCell id="V8_SMq7qqS84tooQgyuv-1" value="&lt;p style=&quot;margin:0px;margin-top:4px;text-align:center;&quot;&gt;&lt;b&gt;auth_interface  /* æŽ¥å£å‚æ•°è¡¨ */&lt;/b&gt;&lt;/p&gt;&lt;hr size=&quot;1&quot;/&gt;&lt;p style=&quot;margin:0 0 0 4px;line-height:1.6;&quot;&gt; name  /* æŽ¥å£å */: varchar(32)&lt;br/&gt; system_code  /* ç³»ç»Ÿç¼–ç  */: varchar(32)&lt;br/&gt; menu_code  /* èœå•ç¼–ç  */: varchar(32)&lt;br/&gt; url  /* url */: varchar(128)&lt;br/&gt; params  /* å‚æ•° */: varchar(128)&lt;br/&gt; del_flag  /* åˆ é™¤æ ‡è¯†ï¼Œ0-æœªåˆ é™¤ï¼Œ1-åˆ é™¤ */: tinyint(4)&lt;br/&gt; create_stime  /* è¡Œæ’å…¥æ—¶é—´ */: datetime&lt;br/&gt; update_stime  /* è¡Œä¿®æ”¹æ—¶é—´ */: datetime&lt;/p&gt;&lt;hr size=&quot;1&quot;/&gt;&lt;p style=&quot;margin:0 0 0 4px;line-height:1.6;&quot;&gt; id  /* ä¸»é”® */: bigint(20)&lt;/p&gt;" style="verticalAlign=top;align=left;overflow=fill;fontSize=14;fontFamily=Helvetica;html=1;rounded=0;shadow=0;comic=0;labelBackgroundColor=none;strokeWidth=1;" vertex="1" parent="1">
          <mxGeometry x="-325" y="1048" width="419" height="256" as="geometry" />
        </mxCell>
        <mxCell id="V8_SMq7qqS84tooQgyuv-2" value="&lt;p style=&quot;margin:0px;margin-top:4px;text-align:center;&quot;&gt;&lt;b&gt;auth_organization  /* 组织表 */&lt;/b&gt;&lt;/p&gt;&lt;hr size=&quot;1&quot;/&gt;&lt;p style=&quot;margin:0 0 0 4px;line-height:1.6;&quot;&gt; name  /* 组织名称 */: varchar(100)&lt;br/&gt; level  /* 组织级别 */: tinyint(4)&lt;br/&gt; parent_id  /* 父组织id */: bigint(20)&lt;br/&gt; inner_flag  /* 是否内部部门 */: tinyint(4)&lt;br/&gt; del_flag  /* 删除标识，0-未删除，1-删除 */: tinyint(4)&lt;br/&gt; create_id  /* 创建人id */: bigint(20)&lt;br/&gt; create_name  /* 创建人姓名 */: varchar(10)&lt;br/&gt; create_stime  /* 行插入时间 */: datetime&lt;br/&gt; update_stime  /* 行修改时间 */: datetime&lt;/p&gt;&lt;hr size=&quot;1&quot;/&gt;&lt;p style=&quot;margin:0 0 0 4px;line-height:1.6;&quot;&gt; id  /* 主键 */: bigint(20)&lt;/p&gt;" style="verticalAlign=top;align=left;overflow=fill;fontSize=14;fontFamily=Helvetica;html=1;rounded=0;shadow=0;comic=0;labelBackgroundColor=none;strokeWidth=1;" vertex="1" parent="1">
          <mxGeometry x="-335" y="396" width="319" height="280" as="geometry" />
        </mxCell>
        <mxCell id="V8_SMq7qqS84tooQgyuv-3" value="&lt;p style=&quot;margin:0px;margin-top:4px;text-align:center;&quot;&gt;&lt;b&gt;auth_position  /* 岗位表 */&lt;/b&gt;&lt;/p&gt;&lt;hr size=&quot;1&quot;/&gt;&lt;p style=&quot;margin:0 0 0 4px;line-height:1.6;&quot;&gt; name  /* 岗位名称 */: varchar(100)&lt;br/&gt; del_flag  /* 删除标识，0-未删除，1-删除 */: tinyint(4)&lt;br/&gt; create_id  /* 创建人id */: bigint(20)&lt;br/&gt; create_name  /* 创建人姓名 */: varchar(10)&lt;br/&gt; create_stime  /* 行插入时间 */: datetime&lt;br/&gt; update_stime  /* 行修改时间 */: datetime&lt;/p&gt;&lt;hr size=&quot;1&quot;/&gt;&lt;p style=&quot;margin:0 0 0 4px;line-height:1.6;&quot;&gt; id  /* 主键 */: bigint(20)&lt;/p&gt;" style="verticalAlign=top;align=left;overflow=fill;fontSize=14;fontFamily=Helvetica;html=1;rounded=0;shadow=0;comic=0;labelBackgroundColor=none;strokeWidth=1;" vertex="1" parent="1">
          <mxGeometry x="-335" y="-228" width="319" height="208" as="geometry" />
        </mxCell>
        <mxCell id="V8_SMq7qqS84tooQgyuv-4" value="&lt;p style=&quot;margin:0px;margin-top:4px;text-align:center;&quot;&gt;&lt;b&gt;data_bi_blackboard_share_record  /* 咨询bi-看板基本信息表 */&lt;/b&gt;&lt;/p&gt;&lt;hr size=&quot;1&quot;/&gt;&lt;p style=&quot;margin:0 0 0 4px;line-height:1.6;&quot;&gt; board_id  /* 看板id */: bigint(20)&lt;br/&gt; board_name  /* 看板名称 */: varchar(60)&lt;br/&gt; share_time  /* 看板分享时间 */: datetime&lt;br/&gt; share_status  /* 分享状态 */: tinyint(4)&lt;br/&gt; share_complete_time  /* 分享完成时间 */: datetime&lt;br/&gt; del_flag  /* 删除标识,0表示未删除 */: tinyint(4)&lt;br/&gt; source_id  /* 来源ID */: bigint(20)&lt;br/&gt; create_stime  /* 行插入时间 */: datetime&lt;br/&gt; update_stime  /* 行修改时间 */: datetime&lt;/p&gt;&lt;hr size=&quot;1&quot;/&gt;&lt;p style=&quot;margin:0 0 0 4px;line-height:1.6;&quot;&gt; id  /* 主键 */: bigint(20)&lt;/p&gt;" style="verticalAlign=top;align=left;overflow=fill;fontSize=14;fontFamily=Helvetica;html=1;rounded=0;shadow=0;comic=0;labelBackgroundColor=none;strokeWidth=1;" vertex="1" parent="1">
          <mxGeometry x="920" y="736" width="449" height="280" as="geometry" />
        </mxCell>
        <mxCell id="V8_SMq7qqS84tooQgyuv-5" value="&lt;p style=&quot;margin:0px;margin-top:4px;text-align:center;&quot;&gt;&lt;b&gt;data_bi_blackboard_share_record_detail  /* 咨询bi-看板基本信息表 */&lt;/b&gt;&lt;/p&gt;&lt;hr size=&quot;1&quot;/&gt;&lt;p style=&quot;margin:0 0 0 4px;line-height:1.6;&quot;&gt; share_record_id  /* 分享记录id */: bigint(20)&lt;br/&gt; work_id  /* 工单Id */: bigint(20)&lt;br/&gt; user_id  /* 被分享人id */: bigint(20)&lt;br/&gt; account  /* 被分享人域账号 */: varchar(50)&lt;br/&gt; name  /* 被分享人姓名 */: varchar(50)&lt;br/&gt; share_status  /* 分享状态 */: tinyint(4)&lt;br/&gt; share_complete_time  /* 分享完成时间 */: datetime&lt;br/&gt; del_flag  /* 删除标识,0表示未删除 */: tinyint(4)&lt;br/&gt; create_stime  /* 行插入时间 */: datetime&lt;br/&gt; update_stime  /* 行修改时间 */: datetime&lt;/p&gt;&lt;hr size=&quot;1&quot;/&gt;&lt;p style=&quot;margin:0 0 0 4px;line-height:1.6;&quot;&gt; id  /* 主键 */: bigint(20)&lt;/p&gt;" style="verticalAlign=top;align=left;overflow=fill;fontSize=14;fontFamily=Helvetica;html=1;rounded=0;shadow=0;comic=0;labelBackgroundColor=none;strokeWidth=1;" vertex="1" parent="1">
          <mxGeometry x="74" y="384" width="501" height="304" as="geometry" />
        </mxCell>
        <mxCell id="V8_SMq7qqS84tooQgyuv-6" value="&lt;p style=&quot;margin:0px;margin-top:4px;text-align:center;&quot;&gt;&lt;b&gt;main_account  /* 主账户表 */&lt;/b&gt;&lt;/p&gt;&lt;hr size=&quot;1&quot;/&gt;&lt;p style=&quot;margin:0 0 0 4px;line-height:1.6;&quot;&gt; brand_id  /* 品牌厂商id */: int(11)&lt;br/&gt; brand_name  /* 品牌厂商名称 */: varchar(50)&lt;br/&gt; name: varchar(50)&lt;br/&gt; customer_type  /* 客户类型，1-试用，2-正式 */: tinyint(4)&lt;br/&gt; contract_no  /* 客户类型为2-正式时 填写合同号 */: varchar(50)&lt;br/&gt; area_type  /* 区域类型 1 全国 2区域 */: tinyint(4)&lt;br/&gt; start_time  /* 产品使用有效期--开始时间 */: datetime&lt;br/&gt; end_time  /* 产品使用有效期--结束时间 */: datetime&lt;br/&gt; status  /* 系统状态 0-待激活（审批） 1-激活 2-过期（应该没有此状态） 3-禁用 */: tinyint(4)&lt;br/&gt; create_account  /* 添加关系人域账号 */: varchar(20)&lt;br/&gt; create_name  /* 添加关系人姓名 */: varchar(10)&lt;br/&gt; del_flag  /* 删除标识，0-未删除，1-删除 */: tinyint(4)&lt;br/&gt; create_stime  /* 行插入时间 */: datetime&lt;br/&gt; update_stime  /* 行修改时间 */: datetime&lt;/p&gt;&lt;hr size=&quot;1&quot;/&gt;&lt;p style=&quot;margin:0 0 0 4px;line-height:1.6;&quot;&gt; id  /* 主键 */: bigint(20)&lt;/p&gt;" style="verticalAlign=top;align=left;overflow=fill;fontSize=14;fontFamily=Helvetica;html=1;rounded=0;shadow=0;comic=0;labelBackgroundColor=none;strokeWidth=1;" vertex="1" parent="1">
          <mxGeometry x="-834" y="3230" width="509" height="400" as="geometry" />
        </mxCell>
        <mxCell id="V8_SMq7qqS84tooQgyuv-7" value="&lt;p style=&quot;margin:0px;margin-top:4px;text-align:center;&quot;&gt;&lt;b&gt;ref_position_role  /* 岗位角色关系表 */&lt;/b&gt;&lt;/p&gt;&lt;hr size=&quot;1&quot;/&gt;&lt;p style=&quot;margin:0 0 0 4px;line-height:1.6;&quot;&gt; position_id  /* 岗位id */: bigint(20)&lt;br/&gt; role_id  /* 角色id */: bigint(20)&lt;br/&gt; del_flag  /* 删除标识，0-未删除，1-删除 */: tinyint(4)&lt;br/&gt; create_id  /* 创建人id */: bigint(20)&lt;br/&gt; create_name  /* 创建人姓名 */: varchar(10)&lt;br/&gt; create_stime  /* 行插入时间 */: datetime&lt;br/&gt; update_stime  /* 行修改时间 */: datetime&lt;/p&gt;&lt;hr size=&quot;1&quot;/&gt;&lt;p style=&quot;margin:0 0 0 4px;line-height:1.6;&quot;&gt; id  /* 主键 */: bigint(20)&lt;/p&gt;" style="verticalAlign=top;align=left;overflow=fill;fontSize=14;fontFamily=Helvetica;html=1;rounded=0;shadow=0;comic=0;labelBackgroundColor=none;strokeWidth=1;" vertex="1" parent="1">
          <mxGeometry x="65" y="-240" width="319" height="232" as="geometry" />
        </mxCell>
        <mxCell id="V8_SMq7qqS84tooQgyuv-8" value="&lt;p style=&quot;margin:0px;margin-top:4px;text-align:center;&quot;&gt;&lt;b&gt;ref_role_menu  /* 角色菜单关系表 */&lt;/b&gt;&lt;/p&gt;&lt;hr size=&quot;1&quot;/&gt;&lt;p style=&quot;margin:0 0 0 4px;line-height:1.6;&quot;&gt; system_code  /* 系统code */: varchar(32)&lt;br/&gt; role_code  /* 角色code */: varchar(32)&lt;br/&gt; menu_code  /* 菜单code */: varchar(32)&lt;br/&gt; del_flag  /* 删除标识，0-未删除，1-删除 */: tinyint(4)&lt;br/&gt; create_id  /* 创建人id */: bigint(20)&lt;br/&gt; create_name  /* 创建人姓名 */: varchar(10)&lt;br/&gt; create_stime  /* 行插入时间 */: datetime&lt;br/&gt; update_stime  /* 行修改时间 */: datetime&lt;/p&gt;&lt;hr size=&quot;1&quot;/&gt;&lt;p style=&quot;margin:0 0 0 4px;line-height:1.6;&quot;&gt; id  /* 主键 */: bigint(20)&lt;/p&gt;" style="verticalAlign=top;align=left;overflow=fill;fontSize=14;fontFamily=Helvetica;html=1;rounded=0;shadow=0;comic=0;labelBackgroundColor=none;strokeWidth=1;" vertex="1" parent="1">
          <mxGeometry x="1225" y="1048" width="319" height="256" as="geometry" />
        </mxCell>
        <mxCell id="V8_SMq7qqS84tooQgyuv-9" value="&lt;p style=&quot;margin:0px;margin-top:4px;text-align:center;&quot;&gt;&lt;b&gt;saas_system  /* saas系统表 */&lt;/b&gt;&lt;/p&gt;&lt;hr size=&quot;1&quot;/&gt;&lt;p style=&quot;margin:0 0 0 4px;line-height:1.6;&quot;&gt; code  /* saas系统的编码 */: varchar(50)&lt;br/&gt; label  /* saas系统的名 */: varchar(50)&lt;br/&gt; descn  /* saas系统描述 */: varchar(256)&lt;br/&gt; root_url  /* saas系统的系统的根url（可以含域名） */: varchar(1024)&lt;br/&gt; status  /* 系统状态 0-待激活（审批） 1-激活 2-过期（应该没有此状态） 3-禁用 */: tinyint(4)&lt;br/&gt; create_account  /* 创建人域账号 */: varchar(20)&lt;br/&gt; create_name  /* 创建人姓名 */: varchar(10)&lt;br/&gt; del_flag  /* 删除标识，0-未删除，1-删除 */: tinyint(4)&lt;br/&gt; create_stime  /* 行插入时间 */: datetime&lt;br/&gt; update_stime  /* 行修改时间 */: datetime&lt;/p&gt;&lt;hr size=&quot;1&quot;/&gt;&lt;p style=&quot;margin:0 0 0 4px;line-height:1.6;&quot;&gt; id  /* 主键 */: bigint(20)&lt;/p&gt;" style="verticalAlign=top;align=left;overflow=fill;fontSize=14;fontFamily=Helvetica;html=1;rounded=0;shadow=0;comic=0;labelBackgroundColor=none;strokeWidth=1;" vertex="1" parent="1">
          <mxGeometry x="750" y="1704" width="509" height="304" as="geometry" />
        </mxCell>
        <mxCell id="V8_SMq7qqS84tooQgyuv-10" value="&lt;p style=&quot;margin:0px;margin-top:4px;text-align:center;&quot;&gt;&lt;b&gt;sys_dept  /* 系统部门表 */&lt;/b&gt;&lt;/p&gt;&lt;hr size=&quot;1&quot;/&gt;&lt;p style=&quot;margin:0 0 0 4px;line-height:1.6;&quot;&gt; name  /* 部门名称 */: varchar(100)&lt;br/&gt; system_default  /* 系统默认，0-否，1-是 */: tinyint(4)&lt;br/&gt; status  /* 状态标识，0-禁用，1-启用 */: tinyint(4)&lt;br/&gt; del_flag  /* 删除标识，0-未删除，1-删除 */: tinyint(4)&lt;br/&gt; create_stime  /* 行插入时间 */: datetime&lt;br/&gt; update_stime  /* 行修改时间 */: datetime&lt;/p&gt;&lt;hr size=&quot;1&quot;/&gt;&lt;p style=&quot;margin:0 0 0 4px;line-height:1.6;&quot;&gt; id  /* 主键 */: bigint(20)&lt;/p&gt;" style="verticalAlign=top;align=left;overflow=fill;fontSize=14;fontFamily=Helvetica;html=1;rounded=0;shadow=0;comic=0;labelBackgroundColor=none;strokeWidth=1;" vertex="1" parent="1">
          <mxGeometry x="-143" y="-488" width="334" height="208" as="geometry" />
        </mxCell>
        <mxCell id="V8_SMq7qqS84tooQgyuv-41" style="edgeStyle=orthogonalEdgeStyle;rounded=0;orthogonalLoop=1;jettySize=auto;html=1;entryX=0;entryY=0.5;entryDx=0;entryDy=0;endSize=12;" edge="1" parent="1" source="V8_SMq7qqS84tooQgyuv-11" target="V8_SMq7qqS84tooQgyuv-6">
          <mxGeometry relative="1" as="geometry" />
        </mxCell>
        <mxCell id="V8_SMq7qqS84tooQgyuv-11" value="&lt;p style=&quot;margin:0px;margin-top:4px;text-align:center;&quot;&gt;&lt;b&gt;sys_main_account_ref_location  /* 主账户下属开通的区域 */&lt;/b&gt;&lt;/p&gt;&lt;hr size=&quot;1&quot;/&gt;&lt;p style=&quot;margin:0 0 0 4px;line-height:1.6;&quot;&gt; main_account_id  /* 主账户ID */: bigint(20)&lt;br/&gt; region_id  /* 省份id -8888 全部 */: bigint(11)&lt;br/&gt; region_name  /* 省份名称 */: varchar(50)&lt;br/&gt; location_type: tinyint(4)&lt;br/&gt; location_id  /* 城市id -8888 全部 */: int(11)&lt;br/&gt; location_name  /* 城市名称 */: varchar(50)&lt;br/&gt; sort  /* 排序 */: int(11)&lt;br/&gt; del_flag  /* 删除标识，0-未删除，1-删除 */: tinyint(4)&lt;br/&gt; create_stime  /* 行插入时间 */: datetime&lt;br/&gt; update_stime  /* 行修改时间 */: datetime&lt;/p&gt;&lt;hr size=&quot;1&quot;/&gt;&lt;p style=&quot;margin:0 0 0 4px;line-height:1.6;&quot;&gt; id  /* 主键 */: bigint(20)&lt;/p&gt;" style="verticalAlign=top;align=left;overflow=fill;fontSize=14;fontFamily=Helvetica;html=1;rounded=0;shadow=0;comic=0;labelBackgroundColor=none;strokeWidth=1;" vertex="1" parent="1">
          <mxGeometry x="-1680" y="3278" width="426" height="304" as="geometry" />
        </mxCell>
        <mxCell id="V8_SMq7qqS84tooQgyuv-42" style="edgeStyle=orthogonalEdgeStyle;rounded=0;orthogonalLoop=1;jettySize=auto;html=1;" edge="1" parent="1" source="V8_SMq7qqS84tooQgyuv-12">
          <mxGeometry relative="1" as="geometry">
            <mxPoint x="-580.0000000000005" y="3640" as="targetPoint" />
          </mxGeometry>
        </mxCell>
        <mxCell id="V8_SMq7qqS84tooQgyuv-46" value="&lt;span style=&quot;text-align: left;&quot;&gt;main_account_id:id&lt;/span&gt;" style="edgeLabel;html=1;align=center;verticalAlign=middle;resizable=0;points=[];" vertex="1" connectable="0" parent="V8_SMq7qqS84tooQgyuv-42">
          <mxGeometry x="-0.579" y="3" relative="1" as="geometry">
            <mxPoint as="offset" />
          </mxGeometry>
        </mxCell>
        <mxCell id="V8_SMq7qqS84tooQgyuv-12" value="&lt;p style=&quot;margin:0px;margin-top:4px;text-align:center;&quot;&gt;&lt;b&gt;sys_main_account_ref_series  /* 主账户下属开通的车型 */&lt;/b&gt;&lt;/p&gt;&lt;hr size=&quot;1&quot;/&gt;&lt;p style=&quot;margin:0 0 0 4px;line-height:1.6;&quot;&gt; system_code  /* saas系统的编码 */: varchar(50)&lt;br/&gt; main_account_id  /* 主账户ID */: bigint(20)&lt;br/&gt; series_id  /* 车型id */: int(11)&lt;br/&gt; sort  /* 排序 */: int(11)&lt;br/&gt; del_flag  /* 删除标识，0-未删除，1-删除 */: tinyint(4)&lt;br/&gt; create_stime  /* 行插入时间 */: datetime&lt;br/&gt; update_stime  /* 行修改时间 */: datetime&lt;/p&gt;&lt;hr size=&quot;1&quot;/&gt;&lt;p style=&quot;margin:0 0 0 4px;line-height:1.6;&quot;&gt; id  /* 主键 */: bigint(20)&lt;/p&gt;" style="verticalAlign=top;align=left;overflow=fill;fontSize=14;fontFamily=Helvetica;html=1;rounded=0;shadow=0;comic=0;labelBackgroundColor=none;strokeWidth=1;" vertex="1" parent="1">
          <mxGeometry x="-890" y="4280" width="411" height="232" as="geometry" />
        </mxCell>
        <mxCell id="V8_SMq7qqS84tooQgyuv-13" value="&lt;p style=&quot;margin:0px;margin-top:4px;text-align:center;&quot;&gt;&lt;b&gt;sys_menu  /* 菜单权限表 */&lt;/b&gt;&lt;/p&gt;&lt;hr size=&quot;1&quot;/&gt;&lt;p style=&quot;margin:0 0 0 4px;line-height:1.6;&quot;&gt; name  /* 菜单名称 */: varchar(50)&lt;br/&gt; code  /* 菜单权限编码  */: varchar(50)&lt;br/&gt; parent_id  /* 父菜单ID */: bigint(20)&lt;br/&gt; system_code  /* saas系统的编码 */: varchar(50)&lt;br/&gt; sort  /* 显示顺序 */: int(4)&lt;br/&gt; path  /* 菜单地址 */: varchar(200)&lt;br/&gt; icon  /* 图标 */: varchar(32)&lt;br/&gt; type  /* 菜单类型（M目录 C菜单 F按钮-操作） */: char(1)&lt;br/&gt; visible  /* 菜单状态（0显示 1隐藏） */: tinyint(4)&lt;br/&gt; status  /* 菜单状态（0正常 1停用） */: tinyint(4)&lt;br/&gt; remark  /* 备注 */: varchar(500)&lt;br/&gt; del_flag  /* 删除标识，0-未删除，1-删除 */: tinyint(4)&lt;br/&gt; create_account  /* 创建人域账号 */: varchar(20)&lt;br/&gt; create_name  /* 创建人姓名 */: varchar(10)&lt;br/&gt; create_stime  /* 行插入时间 */: datetime&lt;br/&gt; update_stime  /* 行修改时间 */: datetime&lt;/p&gt;&lt;hr size=&quot;1&quot;/&gt;&lt;p style=&quot;margin:0 0 0 4px;line-height:1.6;&quot;&gt; id  /* 主键 */: bigint(20)&lt;/p&gt;" style="verticalAlign=top;align=left;overflow=fill;fontSize=14;fontFamily=Helvetica;html=1;rounded=0;shadow=0;comic=0;labelBackgroundColor=none;strokeWidth=1;" vertex="1" parent="1">
          <mxGeometry x="1100" y="2210" width="328" height="448" as="geometry" />
        </mxCell>
        <mxCell id="V8_SMq7qqS84tooQgyuv-14" value="&lt;p style=&quot;margin:0px;margin-top:4px;text-align:center;&quot;&gt;&lt;b&gt;sys_operator_log  /* 操作日志记录 */&lt;/b&gt;&lt;/p&gt;&lt;hr size=&quot;1&quot;/&gt;&lt;p style=&quot;margin:0 0 0 4px;line-height:1.6;&quot;&gt; title  /* 模块标题 */: varchar(50)&lt;br/&gt; business_type  /* 业务类型（0其它 1新增 2修改 3删除） */: tinyint(4)&lt;br/&gt; method  /* 方法名称 */: varchar(100)&lt;br/&gt; request_method  /* 请求方式 */: varchar(10)&lt;br/&gt; operator_type  /* 操作类别（0其它 1后台用户 2手机端用户） */: tinyint(4)&lt;br/&gt; operator_account  /* 操作人员账号 */: varchar(50)&lt;br/&gt; operator_name  /* 操作人员名称 */: varchar(50)&lt;br/&gt; dept_name  /* 部门名称 */: varchar(50)&lt;br/&gt; operator_url  /* 请求URL */: varchar(255)&lt;br/&gt; operator_ip  /* 主机地址 */: varchar(128)&lt;br/&gt; operator_param  /* 请求参数 */: varchar(2000)&lt;br/&gt; json_result  /* 返回参数 */: text&lt;br/&gt; status  /* 操作状态（0正常 1异常） */: tinyint(4)&lt;br/&gt; error_msg  /* 错误消息 */: text&lt;br/&gt; create_stime  /* 行插入时间 */: datetime&lt;br/&gt; update_stime  /* 行修改时间 */: datetime&lt;/p&gt;&lt;hr size=&quot;1&quot;/&gt;&lt;p style=&quot;margin:0 0 0 4px;line-height:1.6;&quot;&gt; id  /* 主键 */: bigint(20)&lt;/p&gt;" style="verticalAlign=top;align=left;overflow=fill;fontSize=14;fontFamily=Helvetica;html=1;rounded=0;shadow=0;comic=0;labelBackgroundColor=none;strokeWidth=1;" vertex="1" parent="1">
          <mxGeometry x="-330" y="2372" width="428" height="448" as="geometry" />
        </mxCell>
        <mxCell id="V8_SMq7qqS84tooQgyuv-15" value="&lt;p style=&quot;margin:0px;margin-top:4px;text-align:center;&quot;&gt;&lt;b&gt;sys_position  /* 内部岗位 */&lt;/b&gt;&lt;/p&gt;&lt;hr size=&quot;1&quot;/&gt;&lt;p style=&quot;margin:0 0 0 4px;line-height:1.6;&quot;&gt; name  /* 岗位名称 */: varchar(50)&lt;br/&gt; competitor_custom_type  /* 竞品是否可以自定义 0 不可以 1可以自定义 */: tinyint(4)&lt;br/&gt; status  /* 状态 0 停用 1 启用 */: tinyint(4)&lt;br/&gt; del_flag  /* 删除标识，0-未删除，1-删除 */: tinyint(4)&lt;br/&gt; create_stime  /* 行插入时间 */: datetime&lt;br/&gt; update_stime  /* 行修改时间 */: datetime&lt;/p&gt;&lt;hr size=&quot;1&quot;/&gt;&lt;p style=&quot;margin:0 0 0 4px;line-height:1.6;&quot;&gt; id  /* 主键 */: bigint(20)&lt;/p&gt;" style="verticalAlign=top;align=left;overflow=fill;fontSize=14;fontFamily=Helvetica;html=1;rounded=0;shadow=0;comic=0;labelBackgroundColor=none;strokeWidth=1;" vertex="1" parent="1">
          <mxGeometry x="1417" y="772" width="495" height="208" as="geometry" />
        </mxCell>
        <mxCell id="V8_SMq7qqS84tooQgyuv-16" value="&lt;p style=&quot;margin:0px;margin-top:4px;text-align:center;&quot;&gt;&lt;b&gt;sys_process_work_order  /* 审批流工单表 */&lt;/b&gt;&lt;/p&gt;&lt;hr size=&quot;1&quot;/&gt;&lt;p style=&quot;margin:0 0 0 4px;line-height:1.6;&quot;&gt; work_id  /* ark审批流工单Id */: bigint(20)&lt;br/&gt; apply_param  /* 申请提交的参数 json字符串 */: text&lt;br/&gt; type  /* 申请类型：1-用户权限数据变更 */: tinyint(4)&lt;br/&gt; status  /* 申请状态：0-审批中 1-审批通过 2-已停用 3-已驳回 4-编辑中 5-已撤回  */: tinyint(4)&lt;br/&gt; audit_accounts  /* 审批人列表 */: varchar(256)&lt;br/&gt; audit_time  /* 审批完成时间 */: varchar(20)&lt;br/&gt; del_flag  /* 删除标识，0-未删除，1-删除 */: tinyint(4)&lt;br/&gt; create_stime  /* 行插入时间 */: datetime&lt;br/&gt; update_stime  /* 行修改时间 */: datetime&lt;/p&gt;&lt;hr size=&quot;1&quot;/&gt;&lt;p style=&quot;margin:0 0 0 4px;line-height:1.6;&quot;&gt; id  /* 主键 */: bigint(20)&lt;/p&gt;" style="verticalAlign=top;align=left;overflow=fill;fontSize=14;fontFamily=Helvetica;html=1;rounded=0;shadow=0;comic=0;labelBackgroundColor=none;strokeWidth=1;" vertex="1" parent="1">
          <mxGeometry x="-94" y="736" width="517" height="280" as="geometry" />
        </mxCell>
        <mxCell id="V8_SMq7qqS84tooQgyuv-17" value="&lt;p style=&quot;margin:0px;margin-top:4px;text-align:center;&quot;&gt;&lt;b&gt;sys_role  /* 角色表 */&lt;/b&gt;&lt;/p&gt;&lt;hr size=&quot;1&quot;/&gt;&lt;p style=&quot;margin:0 0 0 4px;line-height:1.6;&quot;&gt; system_code  /* saas系统的编码 */: varchar(50)&lt;br/&gt; name  /* 角色名称 */: varchar(50)&lt;br/&gt; code  /* 角色编码 */: varchar(50)&lt;br/&gt; sort  /* 显示顺序 */: int(4)&lt;br/&gt; data_scope  /* 数据权限范围（1：全部数据权限 2：自定数据权限--需要查询角色数据权限关系表 指导用户配置数据权限） */: tinyint(4)&lt;br/&gt; user_type  /* 1-内部用户角色，2-外部用户角色 */: tinyint(4)&lt;br/&gt; custom_series  /* 是否自定义本竞品 */: tinyint(4)&lt;br/&gt; status  /* 角色状态（0正常 1停用） */: tinyint(4)&lt;br/&gt; del_flag  /* 删除标识，0-未删除，1-删除 */: tinyint(4)&lt;br/&gt; create_account  /* 创建人域账号 */: varchar(20)&lt;br/&gt; create_name  /* 创建人姓名 */: varchar(10)&lt;br/&gt; create_stime  /* 行插入时间 */: datetime&lt;br/&gt; update_stime  /* 行修改时间 */: datetime&lt;/p&gt;&lt;hr size=&quot;1&quot;/&gt;&lt;p style=&quot;margin:0 0 0 4px;line-height:1.6;&quot;&gt; id  /* 主键 */: bigint(20)&lt;/p&gt;" style="verticalAlign=top;align=left;overflow=fill;fontSize=14;fontFamily=Helvetica;html=1;rounded=0;shadow=0;comic=0;labelBackgroundColor=none;strokeWidth=1;" vertex="1" parent="1">
          <mxGeometry x="122" y="3254" width="628" height="376" as="geometry" />
        </mxCell>
        <mxCell id="V8_SMq7qqS84tooQgyuv-18" value="&lt;p style=&quot;margin:0px;margin-top:4px;text-align:center;&quot;&gt;&lt;b&gt;sys_role_ref_data  /* 角色数据类型关联表 */&lt;/b&gt;&lt;/p&gt;&lt;hr size=&quot;1&quot;/&gt;&lt;p style=&quot;margin:0 0 0 4px;line-height:1.6;&quot;&gt; system_code  /* saas系统的编码 */: varchar(50)&lt;br/&gt; role_code  /* 角色编码 */: varchar(50)&lt;br/&gt; data_type  /* 数据类型 时间，地域，车型，品牌，厂商 */: varchar(50)&lt;br/&gt; del_flag  /* 删除标识，0-未删除，1-删除 */: tinyint(4)&lt;br/&gt; create_account  /* 创建人域账号 */: varchar(20)&lt;br/&gt; create_name  /* 创建人姓名 */: varchar(10)&lt;br/&gt; create_stime  /* 行插入时间 */: datetime&lt;br/&gt; update_stime  /* 行修改时间 */: datetime&lt;/p&gt;&lt;hr size=&quot;1&quot;/&gt;&lt;p style=&quot;margin:0 0 0 4px;line-height:1.6;&quot;&gt; id  /* 主键 */: bigint(20)&lt;/p&gt;" style="verticalAlign=top;align=left;overflow=fill;fontSize=14;fontFamily=Helvetica;html=1;rounded=0;shadow=0;comic=0;labelBackgroundColor=none;strokeWidth=1;" vertex="1" parent="1">
          <mxGeometry x="862" y="408" width="405" height="256" as="geometry" />
        </mxCell>
        <mxCell id="V8_SMq7qqS84tooQgyuv-19" value="&lt;p style=&quot;margin:0px;margin-top:4px;text-align:center;&quot;&gt;&lt;b&gt;sys_role_ref_menu  /* 角色和菜单关联表 */&lt;/b&gt;&lt;/p&gt;&lt;hr size=&quot;1&quot;/&gt;&lt;p style=&quot;margin:0 0 0 4px;line-height:1.6;&quot;&gt; system_code  /* saas系统的编码 */: varchar(50)&lt;br/&gt; role_code  /* 角色编码 */: varchar(50)&lt;br/&gt; menu_code  /* 菜单编码 */: varchar(50)&lt;br/&gt; del_flag  /* 删除标识，0-未删除，1-删除 */: tinyint(4)&lt;br/&gt; create_account  /* 创建人域账号 */: varchar(20)&lt;br/&gt; create_name  /* 创建人姓名 */: varchar(10)&lt;br/&gt; create_stime  /* 行插入时间 */: datetime&lt;br/&gt; update_stime  /* 行修改时间 */: datetime&lt;/p&gt;&lt;hr size=&quot;1&quot;/&gt;&lt;p style=&quot;margin:0 0 0 4px;line-height:1.6;&quot;&gt; id  /* 主键 */: bigint(20)&lt;/p&gt;" style="verticalAlign=top;align=left;overflow=fill;fontSize=14;fontFamily=Helvetica;html=1;rounded=0;shadow=0;comic=0;labelBackgroundColor=none;strokeWidth=1;" vertex="1" parent="1">
          <mxGeometry x="905" y="3374" width="319" height="256" as="geometry" />
        </mxCell>
        <mxCell id="V8_SMq7qqS84tooQgyuv-20" value="&lt;p style=&quot;margin:0px;margin-top:4px;text-align:center;&quot;&gt;&lt;b&gt;sys_user_apply  /* 用户申请记录 */&lt;/b&gt;&lt;/p&gt;&lt;hr size=&quot;1&quot;/&gt;&lt;p style=&quot;margin:0 0 0 4px;line-height:1.6;&quot;&gt; user_id  /* 用户ID */: bigint(20)&lt;br/&gt; data_user_id  /* 被操作的用户id */: bigint(11)&lt;br/&gt; apply_param  /* 申请提交的参数 json字符串 */: text&lt;br/&gt; new_data  /* 更新之后的新数据 */: text&lt;br/&gt; old_data  /* 申请之前的历史数据 json字符串 */: text&lt;br/&gt; type  /* 申请类型：1-用户权限数据变更 */: tinyint(4)&lt;br/&gt; send_email_flag  /* 是否发送邮件  0-不发送 1-发送 */: tinyint(4)&lt;br/&gt; email_list  /* 额外发送的邮箱集合 英文逗号分隔 */: varchar(1024)&lt;br/&gt; status  /* 申请状态：0-审批中 1-审批通过 2-已停用 3-已驳回 4-编辑中 5-已撤回  */: tinyint(4)&lt;br/&gt; work_id  /* ark审批流工单Id */: bigint(20)&lt;br/&gt; del_flag  /* 删除标识，0-未删除，1-删除 */: tinyint(4)&lt;br/&gt; create_stime  /* 行插入时间 */: datetime&lt;br/&gt; update_stime  /* 行修改时间 */: datetime&lt;/p&gt;&lt;hr size=&quot;1&quot;/&gt;&lt;p style=&quot;margin:0 0 0 4px;line-height:1.6;&quot;&gt; id  /* 主键 */: bigint(20)&lt;/p&gt;" style="verticalAlign=top;align=left;overflow=fill;fontSize=14;fontFamily=Helvetica;html=1;rounded=0;shadow=0;comic=0;labelBackgroundColor=none;strokeWidth=1;" vertex="1" parent="1">
          <mxGeometry x="40" y="2832" width="517" height="376" as="geometry" />
        </mxCell>
        <mxCell id="V8_SMq7qqS84tooQgyuv-21" value="&lt;p style=&quot;margin:0px;margin-top:4px;text-align:center;&quot;&gt;&lt;b&gt;sys_user_apply_log  /* 用户申请记录-审批日志表 */&lt;/b&gt;&lt;/p&gt;&lt;hr size=&quot;1&quot;/&gt;&lt;p style=&quot;margin:0 0 0 4px;line-height:1.6;&quot;&gt; apply_id  /* 申请记录id */: bigint(20)&lt;br/&gt; work_id  /* 工单id */: bigint(20)&lt;br/&gt; audit_account  /* 审批人域账号 */: varchar(50)&lt;br/&gt; audit_name  /* 审批人姓名 */: varchar(50)&lt;br/&gt; audit_comments  /* 审批意见 */: varchar(256)&lt;br/&gt; audit_time  /* 审批时间 */: varchar(20)&lt;br/&gt; audit_status  /* 申请状态：0-审批中 1-审批通过 2-已停用 3-已驳回 4-编辑中 5-已撤回  */: tinyint(4)&lt;br/&gt; del_flag  /* 删除标识，0-未删除，1-删除 */: tinyint(4)&lt;br/&gt; create_stime  /* 行插入时间 */: datetime&lt;br/&gt; update_stime  /* 行修改时间 */: datetime&lt;/p&gt;&lt;hr size=&quot;1&quot;/&gt;&lt;p style=&quot;margin:0 0 0 4px;line-height:1.6;&quot;&gt; id  /* 主键 */: bigint(20)&lt;/p&gt;" style="verticalAlign=top;align=left;overflow=fill;fontSize=14;fontFamily=Helvetica;html=1;rounded=0;shadow=0;comic=0;labelBackgroundColor=none;strokeWidth=1;" vertex="1" parent="1">
          <mxGeometry x="650" y="2771" width="540" height="304" as="geometry" />
        </mxCell>
        <mxCell id="V8_SMq7qqS84tooQgyuv-22" value="&lt;p style=&quot;margin:0px;margin-top:4px;text-align:center;&quot;&gt;&lt;b&gt;sys_user_apply_system  /* 用户权限申请系统记录表 */&lt;/b&gt;&lt;/p&gt;&lt;hr size=&quot;1&quot;/&gt;&lt;p style=&quot;margin:0 0 0 4px;line-height:1.6;&quot;&gt; apply_id  /* 申请记录id */: bigint(20)&lt;br/&gt; system_code  /* 系统编码 */: varchar(50)&lt;br/&gt; role_code  /* 角色编码 */: varchar(50)&lt;br/&gt; old_auth_param  /* 旧权限参数 */: text&lt;br/&gt; auth_params  /* 权限参数 */: text&lt;br/&gt; change_param  /* 变更参数json */: text&lt;br/&gt; need_refresh  /* 是否需要刷新历史权限，1-需要，0-不需要 */: tinyint(4)&lt;br/&gt; refresh_status  /* 刷新状态，0-未刷新，1-已刷新 */: tinyint(4)&lt;br/&gt; refresh_time  /* 刷新数据时间 */: datetime&lt;br/&gt; create_stime  /* 行插入时间 */: datetime&lt;br/&gt; update_stime  /* 行修改时间 */: datetime&lt;/p&gt;&lt;hr size=&quot;1&quot;/&gt;&lt;p style=&quot;margin:0 0 0 4px;line-height:1.6;&quot;&gt; id  /* 主键 */: bigint(20)&lt;/p&gt;" style="verticalAlign=top;align=left;overflow=fill;fontSize=14;fontFamily=Helvetica;html=1;rounded=0;shadow=0;comic=0;labelBackgroundColor=none;strokeWidth=1;" vertex="1" parent="1">
          <mxGeometry x="615" y="32" width="419" height="328" as="geometry" />
        </mxCell>
        <mxCell id="V8_SMq7qqS84tooQgyuv-23" value="&lt;p style=&quot;margin:0px;margin-top:4px;text-align:center;&quot;&gt;&lt;b&gt;sys_user_custom_region  /* 用户自定义区域 */&lt;/b&gt;&lt;/p&gt;&lt;hr size=&quot;1&quot;/&gt;&lt;p style=&quot;margin:0 0 0 4px;line-height:1.6;&quot;&gt; system_code  /* saas系统的编码 */: varchar(50)&lt;br/&gt; role_code  /* 角色编码 */: varchar(50)&lt;br/&gt; user_id  /* 用户ID */: bigint(20)&lt;br/&gt; main_account_id  /* 主账户id 内容运营系统有效 其他系统-9999 */: bigint(20)&lt;br/&gt; group_id  /* 自定义区域组id */: bigint(20)&lt;br/&gt; group_name  /* 自定义区域组名称 */: varchar(50)&lt;br/&gt; region_id  /* 自定义区域id */: bigint(20)&lt;br/&gt; region_name  /* 自定义区域名称 */: varchar(50)&lt;br/&gt; location_type  /* 地区类型：1-省 2-市 3-区县 */: tinyint(4)&lt;br/&gt; location_id  /* 地区id */: int(11)&lt;br/&gt; location_name  /* 地区名称 */: varchar(50)&lt;br/&gt; sort  /* 排序字段 */: int(11)&lt;br/&gt; del_flag  /* 删除标识，0-未删除，1-删除 */: tinyint(4)&lt;br/&gt; create_stime  /* 行插入时间 */: datetime&lt;br/&gt; update_stime  /* 行修改时间 */: datetime&lt;/p&gt;&lt;hr size=&quot;1&quot;/&gt;&lt;p style=&quot;margin:0 0 0 4px;line-height:1.6;&quot;&gt; id  /* 主键 */: bigint(20)&lt;/p&gt;" style="verticalAlign=top;align=left;overflow=fill;fontSize=14;fontFamily=Helvetica;html=1;rounded=0;shadow=0;comic=0;labelBackgroundColor=none;strokeWidth=1;" vertex="1" parent="1">
          <mxGeometry x="360" y="4280" width="452" height="424" as="geometry" />
        </mxCell>
        <mxCell id="V8_SMq7qqS84tooQgyuv-24" value="&lt;p style=&quot;margin:0px;margin-top:4px;text-align:center;&quot;&gt;&lt;b&gt;sys_user_market  /* ç»†åˆ†å¸‚åœºè¡¨ */&lt;/b&gt;&lt;/p&gt;&lt;hr size=&quot;1&quot;/&gt;&lt;p style=&quot;margin:0 0 0 4px;line-height:1.6;&quot;&gt; user_id  /* ç”¨æˆ·id */: bigint(20)&lt;br/&gt; name  /* åç§° */: varchar(32)&lt;br/&gt; car_level  /* è½¦åž‹çº§åˆ« */: varchar(128)&lt;br/&gt; energy_level  /* èƒ½æºç±»åž‹ */: varchar(128)&lt;br/&gt; msrp_range  /* ä»·æ ¼åŒºé—´ */: varchar(128)&lt;br/&gt; country  /* å›½åˆ« */: varchar(128)&lt;br/&gt; car_structure  /* è½¦åž‹ç»“æž„ */: varchar(128)&lt;br/&gt; del_flag  /* åˆ é™¤æ ‡è¯†ï¼Œ0-æœªåˆ é™¤ï¼Œ1-åˆ é™¤ */: tinyint(4)&lt;br/&gt; create_stime  /* è¡Œæ’å…¥æ—¶é—´ */: datetime&lt;br/&gt; update_stime  /* è¡Œä¿®æ”¹æ—¶é—´ */: datetime&lt;/p&gt;&lt;hr size=&quot;1&quot;/&gt;&lt;p style=&quot;margin:0 0 0 4px;line-height:1.6;&quot;&gt; id  /* ä¸»é”® */: bigint(20)&lt;/p&gt;" style="verticalAlign=top;align=left;overflow=fill;fontSize=14;fontFamily=Helvetica;html=1;rounded=0;shadow=0;comic=0;labelBackgroundColor=none;strokeWidth=1;" vertex="1" parent="1">
          <mxGeometry x="1095" y="44" width="419" height="304" as="geometry" />
        </mxCell>
        <mxCell id="V8_SMq7qqS84tooQgyuv-43" style="edgeStyle=orthogonalEdgeStyle;rounded=0;orthogonalLoop=1;jettySize=auto;html=1;entryX=0.5;entryY=1;entryDx=0;entryDy=0;" edge="1" parent="1" source="V8_SMq7qqS84tooQgyuv-25" target="V8_SMq7qqS84tooQgyuv-6">
          <mxGeometry relative="1" as="geometry">
            <Array as="points">
              <mxPoint x="-85" y="3960" />
              <mxPoint x="-579" y="3960" />
            </Array>
          </mxGeometry>
        </mxCell>
        <mxCell id="V8_SMq7qqS84tooQgyuv-47" value="&lt;span style=&quot;text-align: left;&quot;&gt;main_account_id:id&lt;/span&gt;" style="edgeLabel;html=1;align=center;verticalAlign=middle;resizable=0;points=[];" vertex="1" connectable="0" parent="V8_SMq7qqS84tooQgyuv-43">
          <mxGeometry x="-0.75" y="-6" relative="1" as="geometry">
            <mxPoint as="offset" />
          </mxGeometry>
        </mxCell>
        <mxCell id="V8_SMq7qqS84tooQgyuv-25" value="&lt;p style=&quot;margin:0px;margin-top:4px;text-align:center;&quot;&gt;&lt;b&gt;sys_user_ref_compare_data  /* 用户本竞品权限明细表--此表为sys_user_ref_data的从属表--数据以主表为准 */&lt;/b&gt;&lt;/p&gt;&lt;hr size=&quot;1&quot;/&gt;&lt;p style=&quot;margin:0 0 0 4px;line-height:1.6;&quot;&gt; user_id  /* 用户ID */: bigint(20)&lt;br/&gt; system_code  /* saas系统的编码 */: varchar(50)&lt;br/&gt; role_code  /* 角色编码 */: varchar(50)&lt;br/&gt; ref_type  /* 数据权限管理类型 1 直接权限 2关联用户关联权限 3主账户关联权限  */: int(11)&lt;br/&gt; data_type  /* 数据类型 车型，品牌，厂商 */: varchar(50)&lt;br/&gt; main_account_id: bigint(20)&lt;br/&gt; current_id  /* 本品id */: int(11)&lt;br/&gt; compare_id  /* 竞品id集合jsonArray 例如：[1,2,3] */: text&lt;br/&gt; dim_car  /* 车维度类型，1-品牌，2-厂商，3-车型 */: tinyint(4)&lt;br/&gt; union_flag  /* 是否联合车型，1-是，0-否 */: tinyint(4)&lt;br/&gt; del_flag  /* 删除标识，0-未删除，1-删除 */: tinyint(4)&lt;br/&gt; create_stime  /* 行插入时间 */: datetime&lt;br/&gt; update_stime  /* 行修改时间 */: datetime&lt;/p&gt;&lt;hr size=&quot;1&quot;/&gt;&lt;p style=&quot;margin:0 0 0 4px;line-height:1.6;&quot;&gt; id  /* 主键 */: bigint(20)&lt;/p&gt;" style="verticalAlign=top;align=left;overflow=fill;fontSize=14;fontFamily=Helvetica;html=1;rounded=0;shadow=0;comic=0;labelBackgroundColor=none;strokeWidth=1;" vertex="1" parent="1">
          <mxGeometry x="-421" y="4280" width="671" height="376" as="geometry" />
        </mxCell>
        <mxCell id="V8_SMq7qqS84tooQgyuv-26" value="&lt;p style=&quot;margin:0px;margin-top:4px;text-align:center;&quot;&gt;&lt;b&gt;sys_user_ref_data  /* 用户数据权限关联表 */&lt;/b&gt;&lt;/p&gt;&lt;hr size=&quot;1&quot;/&gt;&lt;p style=&quot;margin:0 0 0 4px;line-height:1.6;&quot;&gt; system_code  /* saas系统的编码 */: varchar(50)&lt;br/&gt; user_id  /* 用户ID */: bigint(20)&lt;br/&gt; data_type  /* 数据类型 时间，地域，车型，品牌，厂商 */: varchar(50)&lt;br/&gt; data  /* 具体数据权限 */: text&lt;br/&gt; role_code: varchar(50)&lt;br/&gt; del_flag  /* 删除标识，0-未删除，1-删除 */: tinyint(4)&lt;br/&gt; create_account  /* 创建人域账号 */: varchar(20)&lt;br/&gt; create_name  /* 创建人姓名 */: varchar(10)&lt;br/&gt; create_stime  /* 行插入时间 */: datetime&lt;br/&gt; update_stime  /* 行修改时间 */: datetime&lt;/p&gt;&lt;hr size=&quot;1&quot;/&gt;&lt;p style=&quot;margin:0 0 0 4px;line-height:1.6;&quot;&gt; id  /* 主键 */: bigint(20)&lt;/p&gt;" style="verticalAlign=top;align=left;overflow=fill;fontSize=14;fontFamily=Helvetica;html=1;rounded=0;shadow=0;comic=0;labelBackgroundColor=none;strokeWidth=1;" vertex="1" parent="1">
          <mxGeometry x="-158" y="44" width="405" height="304" as="geometry" />
        </mxCell>
        <mxCell id="V8_SMq7qqS84tooQgyuv-27" value="&lt;p style=&quot;margin:0px;margin-top:4px;text-align:center;&quot;&gt;&lt;b&gt;sys_user_ref_role  /* 用户和角色关联表 */&lt;/b&gt;&lt;/p&gt;&lt;hr size=&quot;1&quot;/&gt;&lt;p style=&quot;margin:0 0 0 4px;line-height:1.6;&quot;&gt; user_id  /* 用户ID */: bigint(20)&lt;br/&gt; system_code  /* saas系统的编码 */: varchar(50)&lt;br/&gt; role_code  /* 角色编码 */: varchar(50)&lt;br/&gt; all_main_account_flag  /* 是否关联全部主账户 0-否 1-是 */: tinyint(4)&lt;br/&gt; del_flag  /* 删除标识，0-未删除，1-删除 */: tinyint(4)&lt;br/&gt; create_account  /* 创建人域账号 */: varchar(20)&lt;br/&gt; create_name  /* 创建人姓名 */: varchar(10)&lt;br/&gt; create_stime  /* 行插入时间 */: datetime&lt;br/&gt; update_stime  /* 行修改时间 */: datetime&lt;/p&gt;&lt;hr size=&quot;1&quot;/&gt;&lt;p style=&quot;margin:0 0 0 4px;line-height:1.6;&quot;&gt; id  /* 主键 */: bigint(20)&lt;/p&gt;" style="verticalAlign=top;align=left;overflow=fill;fontSize=14;fontFamily=Helvetica;html=1;rounded=0;shadow=0;comic=0;labelBackgroundColor=none;strokeWidth=1;" vertex="1" parent="1">
          <mxGeometry x="454" y="1036" width="420" height="280" as="geometry" />
        </mxCell>
        <mxCell id="V8_SMq7qqS84tooQgyuv-28" value="&lt;p style=&quot;margin:0px;margin-top:4px;text-align:center;&quot;&gt;&lt;b&gt;sys_work_order_audit_log  /* 审批流工单-审批日志表 */&lt;/b&gt;&lt;/p&gt;&lt;hr size=&quot;1&quot;/&gt;&lt;p style=&quot;margin:0 0 0 4px;line-height:1.6;&quot;&gt; work_id  /* 工单id */: bigint(20)&lt;br/&gt; audit_account  /* 审批人域账号 */: varchar(50)&lt;br/&gt; audit_name  /* 审批人姓名 */: varchar(50)&lt;br/&gt; audit_comments  /* 审批意见 */: varchar(256)&lt;br/&gt; audit_time  /* 审批时间 */: varchar(20)&lt;br/&gt; audit_status  /* 申请状态：0-审批中 1-审批通过 2-已停用 3-已驳回 4-编辑中 5-已撤回  */: tinyint(4)&lt;br/&gt; del_flag  /* 删除标识，0-未删除，1-删除 */: tinyint(4)&lt;br/&gt; create_stime  /* 行插入时间 */: datetime&lt;br/&gt; update_stime  /* 行修改时间 */: datetime&lt;/p&gt;&lt;hr size=&quot;1&quot;/&gt;&lt;p style=&quot;margin:0 0 0 4px;line-height:1.6;&quot;&gt; id  /* 主键 */: bigint(20)&lt;/p&gt;" style="verticalAlign=top;align=left;overflow=fill;fontSize=14;fontFamily=Helvetica;html=1;rounded=0;shadow=0;comic=0;labelBackgroundColor=none;strokeWidth=1;" vertex="1" parent="1">
          <mxGeometry x="434" y="2456" width="540" height="280" as="geometry" />
        </mxCell>
        <mxCell id="V8_SMq7qqS84tooQgyuv-29" value="&lt;p style=&quot;margin:0px;margin-top:4px;text-align:center;&quot;&gt;&lt;b&gt;user_info  /* 用户表 */&lt;/b&gt;&lt;/p&gt;&lt;hr size=&quot;1&quot;/&gt;&lt;p style=&quot;margin:0 0 0 4px;line-height:1.6;&quot;&gt; user_type  /* 用户类型，1-内部用户，2-厂商用户 */: tinyint(4)&lt;br/&gt; customer_type  /* 客户类型，1-试用，2-正式 */: tinyint(4)&lt;br/&gt; contract_no  /* 客户类型为2-正式时 填写合同号 */: varchar(50)&lt;br/&gt; account  /* 账户名（手机号-密文-外部用户，域账户-内部用户） */: varchar(50)&lt;br/&gt; phone  /* 手机号-密码 */: varchar(50)&lt;br/&gt; phone_mosaic  /* 打码报名手机号 加索引没有意义 可以考虑后期独立存储后4位 */: varchar(50)&lt;br/&gt; device_id  /* 设备id */: varchar(256)&lt;br/&gt; name  /* 姓名 */: varchar(50)&lt;br/&gt; email  /* 邮箱 */: varchar(64)&lt;br/&gt; company  /* 公司 */: varchar(128)&lt;br/&gt; position_id  /* 内部用户的岗位id */: bigint(20)&lt;br/&gt; position  /* 职位 */: varchar(64)&lt;br/&gt; client_id  /* 终端id */: varchar(256)&lt;br/&gt; ip  /* ip地址 */: varchar(50)&lt;br/&gt; create_stime  /* 行插入时间 */: datetime&lt;br/&gt; update_stime  /* 行修改时间 */: datetime&lt;br/&gt; dept_id  /* 部门id */: bigint(20)&lt;br/&gt; dept_name  /* 部门名称 */: varchar(256)&lt;br/&gt; partition_id  /* 分区id，0-全国，1-华东区，2-华北区，3-华南区 */: tinyint(4)&lt;br/&gt; partition_owner  /* 分区负责人，0-否，1-是 */: tinyint(4)&lt;br/&gt; send_email_flag  /* 是否发送邮件  0-不发送 1-发送 */: tinyint(4)&lt;br/&gt; email_list  /* 额外发送的邮箱集合 英文逗号分隔 */: varchar(1024)&lt;br/&gt; email_system_code_list  /* 邮件通知的产品集合，英文逗号分隔 */: varchar(1024)&lt;br/&gt; start_time  /* 有效期--开始时间 */: datetime&lt;br/&gt; end_time  /* 有效期--结束时间 */: datetime&lt;br/&gt; status  /* 用户状态 0-待激活（审批） 1-激活 2-过期 3-禁用 */: tinyint(4)&lt;br/&gt; organization_id  /* 组织id */: bigint(20)&lt;br/&gt; del_flag  /* 删除标识，0-未删除，1-删除 */: tinyint(4)&lt;br/&gt; create_account  /* 创建人域账号 */: varchar(20)&lt;br/&gt; create_name  /* 创建人姓名 */: varchar(10)&lt;br/&gt; update_account  /* 修改人域账户 */: varchar(20)&lt;br/&gt; update_name  /* 修改人姓名 */: varchar(20)&lt;br/&gt; dept_leader  /* 是否部门负责人，1：是，0：否 */: tinyint(4)&lt;br/&gt; product_leader  /* 是否产品负责人，1：是，0：否 */: tinyint(4)&lt;br/&gt; bd_leader  /* 是否咨询负责人，1：是，0：否 */: tinyint(4)&lt;br/&gt; operate_leader  /* 是否运营负责人，1：是，0：否 */: tinyint(4)&lt;br/&gt; inner_dept  /* 是否内部部门，1：是，0：否 */: tinyint(4)&lt;br/&gt; incumbency_status  /* 在职状态：1-在职，0-离职 */: tinyint(4)&lt;/p&gt;&lt;hr size=&quot;1&quot;/&gt;&lt;p style=&quot;margin:0 0 0 4px;line-height:1.6;&quot;&gt; id  /* 主键 */: bigint(20)&lt;/p&gt;" style="verticalAlign=top;align=left;overflow=fill;fontSize=14;fontFamily=Helvetica;html=1;rounded=0;shadow=0;comic=0;labelBackgroundColor=none;strokeWidth=1;" vertex="1" parent="1">
          <mxGeometry x="138" y="1368" width="532" height="976" as="geometry" />
        </mxCell>
        <mxCell id="V8_SMq7qqS84tooQgyuv-30" value="&lt;p style=&quot;margin:0px;margin-top:4px;text-align:center;&quot;&gt;&lt;b&gt;user_ref_saas_system  /* 用户和saas产品系统关系表 */&lt;/b&gt;&lt;/p&gt;&lt;hr size=&quot;1&quot;/&gt;&lt;p style=&quot;margin:0 0 0 4px;line-height:1.6;&quot;&gt; user_id  /* 用户id */: bigint(20)&lt;br/&gt; system_code  /* saas系统的编码 */: varchar(50)&lt;br/&gt; main_account_type  /* 主账户类型，1-超级客户，2-普通账户 user_type=2时有用 */: tinyint(4)&lt;br/&gt; main_account_id  /* 主账户id，user_type=2时有用 */: bigint(20)&lt;br/&gt; device_id  /* 当前系统的最新设备id */: varchar(256)&lt;br/&gt; device_switch_cnt  /* 切换设备剩余次数 */: int(11)&lt;br/&gt; browser_switch_cnt  /* 切换浏览器剩余次数 */: int(11)&lt;br/&gt; data_auth_custom_type  /* 数据权限是否可以自定义 0 不可以 1可以自定义 */: tinyint(4)&lt;br/&gt; receive_mes_flag  /* 是否接收消息 0-不接收，1-接收 */: tinyint(4)&lt;br/&gt; only_card_flag  /* 仅看板 0-否 1-是 */: tinyint(4)&lt;br/&gt; examine_sample_flag  /* 文本样本量 0-否 1-是 */: tinyint(4)&lt;br/&gt; start_time  /* 产品使用有效期--开始时间 */: datetime&lt;br/&gt; end_time  /* 产品使用有效期--结束时间 */: datetime&lt;br/&gt; status  /* 用户状态 0-待激活（审批） 1-激活 2-过期 3-禁用 */: tinyint(4)&lt;br/&gt; create_account  /* 添加关系人域账号 */: varchar(20)&lt;br/&gt; create_name  /* 添加关系人姓名 */: varchar(10)&lt;br/&gt; del_flag  /* 删除标识，0-未删除，1-删除 */: tinyint(4)&lt;br/&gt; create_stime  /* 行插入时间 */: datetime&lt;br/&gt; update_stime  /* 行修改时间 */: datetime&lt;/p&gt;&lt;hr size=&quot;1&quot;/&gt;&lt;p style=&quot;margin:0 0 0 4px;line-height:1.6;&quot;&gt; id  /* 主键 */: bigint(20)&lt;/p&gt;" style="verticalAlign=top;align=left;overflow=fill;fontSize=14;fontFamily=Helvetica;html=1;rounded=0;shadow=0;comic=0;labelBackgroundColor=none;strokeWidth=1;" vertex="1" parent="1">
          <mxGeometry x="-1470" y="4280" width="541" height="520" as="geometry" />
        </mxCell>
        <mxCell id="V8_SMq7qqS84tooQgyuv-39" value="" style="html=1;rounded=1;edgeStyle=orthogonalEdgeStyle;dashed=0;startArrow=none;endArrow=block;endSize=12;strokeColor=#595959;exitX=0.500;exitY=0.000;exitDx=0;exitDy=0;entryX=0.500;entryY=1.000;entryDx=0;entryDy=0;" edge="1" parent="1" source="V8_SMq7qqS84tooQgyuv-30" target="V8_SMq7qqS84tooQgyuv-6">
          <mxGeometry width="50" height="50" relative="1" as="geometry">
            <Array as="points">
              <mxPoint x="-1199" y="3960" />
              <mxPoint x="-579" y="3960" />
            </Array>
          </mxGeometry>
        </mxCell>
        <mxCell id="V8_SMq7qqS84tooQgyuv-40" value="main_account_id:id" style="edgeLabel;resizable=0;html=1;align=left;verticalAlign=top;strokeColor=default;" vertex="1" connectable="0" parent="V8_SMq7qqS84tooQgyuv-39">
          <mxGeometry x="-1020" y="3950" as="geometry" />
        </mxCell>
        <mxCell id="V8_SMq7qqS84tooQgyuv-45" style="edgeStyle=orthogonalEdgeStyle;rounded=0;orthogonalLoop=1;jettySize=auto;html=1;entryX=0.499;entryY=0.964;entryDx=0;entryDy=0;entryPerimeter=0;" edge="1" parent="1" source="V8_SMq7qqS84tooQgyuv-23" target="V8_SMq7qqS84tooQgyuv-6">
          <mxGeometry relative="1" as="geometry">
            <Array as="points">
              <mxPoint x="570" y="3960" />
              <mxPoint x="-580" y="3960" />
            </Array>
          </mxGeometry>
        </mxCell>
        <mxCell id="V8_SMq7qqS84tooQgyuv-48" value="&lt;span style=&quot;text-align: left;&quot;&gt;main_account_id:id&lt;/span&gt;" style="edgeLabel;html=1;align=center;verticalAlign=middle;resizable=0;points=[];" vertex="1" connectable="0" parent="V8_SMq7qqS84tooQgyuv-45">
          <mxGeometry x="-0.8068" y="-2" relative="1" as="geometry">
            <mxPoint as="offset" />
          </mxGeometry>
        </mxCell>
      </root>
    </mxGraphModel>
  </diagram>
</mxfile>
